<?xml version="1.0" encoding="UTF-8"?>
<!DOCTYPE svg PUBLIC "-//W3C//DTD SVG 1.1//EN" "http://www.w3.org/Graphics/SVG/1.1/DTD/svg11.dtd">
<svg xmlns="http://www.w3.org/2000/svg" version="1.1" width="500px" height="500px" style="shape-rendering:geometricPrecision; text-rendering:geometricPrecision; image-rendering:optimizeQuality; fill-rule:evenodd; clip-rule:evenodd" xmlns:xlink="http://www.w3.org/1999/xlink">
<g><path style="opacity:1" fill="#fefefe" d="M -0.5,-0.5 C 359.5,-0.5 719.5,-0.5 1079.5,-0.5C 1079.5,359.5 1079.5,719.5 1079.5,1079.5C 719.5,1079.5 359.5,1079.5 -0.5,1079.5C -0.5,719.5 -0.5,359.5 -0.5,-0.5 Z"/></g>
<g><path style="opacity:1" fill="#080808" d="M 501.5,307.5 C 508.202,307.336 514.869,307.669 521.5,308.5C 521.148,311.428 520.482,314.262 519.5,317C 514.955,315.852 510.288,315.518 505.5,316C 498.698,317.075 497.031,320.409 500.5,326C 506.117,327.052 511.784,327.718 517.5,328C 526.839,330.513 530.006,336.347 527,345.5C 525.167,348.667 522.667,351.167 519.5,353C 510.585,355.838 501.585,356.172 492.5,354C 491.456,350.654 491.956,347.487 494,344.5C 501.905,348.749 509.572,348.416 517,343.5C 518.042,340.196 516.875,338.029 513.5,337C 506.198,337.037 499.198,335.704 492.5,333C 485.269,324.952 485.935,317.618 494.5,311C 496.925,309.787 499.259,308.621 501.5,307.5 Z"/></g>
<g><path style="opacity:1" fill="#090909" d="M 588.5,309.5 C 591.518,309.335 594.518,309.502 597.5,310C 604.914,310.488 606.248,313.488 601.5,319C 598.974,318.096 596.308,317.762 593.5,318C 592.128,319.242 591.128,320.742 590.5,322.5C 593.279,324.079 596.279,325.412 599.5,326.5C 598.626,328.747 598.292,331.08 598.5,333.5C 595.211,332.626 591.877,331.959 588.5,331.5C 587.37,339.945 585.704,348.279 583.5,356.5C 580.503,357.476 577.503,357.31 574.5,356C 573.978,355.439 573.645,354.772 573.5,354C 575.882,345.638 577.549,337.138 578.5,328.5C 577.178,328.67 576.011,328.337 575,327.5C 573.159,321.506 575.326,319.173 581.5,320.5C 582.066,315.699 584.4,312.032 588.5,309.5 Z"/></g>
<g><path style="opacity:1" fill="#090909" d="M 543.5,316.5 C 565.915,315.726 573.415,325.726 566,346.5C 556.826,354.788 546.993,355.622 536.5,349C 528.205,338.98 528.538,329.313 537.5,320C 539.727,319.059 541.727,317.892 543.5,316.5 Z"/></g>
<g><path style="opacity:1" fill="#080808" d="M 609.5,320.5 C 612.89,320.777 616.057,321.777 619,323.5C 618.554,326.438 618.054,329.438 617.5,332.5C 620.237,333.031 622.904,333.864 625.5,335C 624.331,337.007 623.665,339.173 623.5,341.5C 620.027,341.424 616.694,340.758 613.5,339.5C 611.995,344.687 610.328,349.853 608.5,355C 609.824,358.814 612.491,360.314 616.5,359.5C 616.5,362.167 616.5,364.833 616.5,367.5C 604.438,367.936 598.604,362.269 599,350.5C 600.735,345.794 602.569,341.127 604.5,336.5C 602.954,335.316 601.287,334.316 599.5,333.5C 600.577,331.271 601.244,328.937 601.5,326.5C 607.216,328.797 609.883,326.797 609.5,320.5 Z"/></g>
<g><path style="opacity:1" fill="#f6f6f6" d="M 545.5,325.5 C 556.804,324.633 560.97,329.633 558,340.5C 554.692,344.327 550.526,345.494 545.5,344C 538.88,337.835 538.88,331.669 545.5,325.5 Z"/></g>
<g><path style="opacity:1" fill="#090909" d="M 632.5,335.5 C 636.429,336.454 639.095,338.787 640.5,342.5C 638.353,349.746 636.853,357.079 636,364.5C 642.509,359.581 649.175,354.915 656,350.5C 658.678,351.579 660.845,353.246 662.5,355.5C 661.042,362.542 659.376,369.542 657.5,376.5C 657.833,377.167 658.167,377.833 658.5,378.5C 664.641,374.192 670.641,369.692 676.5,365C 679.574,365.203 682.241,366.537 684.5,369C 674.94,376.898 665.107,384.398 655,391.5C 651.458,390.158 648.625,387.992 646.5,385C 648.007,378.46 649.673,371.96 651.5,365.5C 651.167,365.167 650.833,364.833 650.5,364.5C 644.833,368.667 639.167,372.833 633.5,377C 632.092,377.315 630.759,376.982 629.5,376C 627.154,374.987 625.487,373.321 624.5,371C 627.222,359.163 629.889,347.329 632.5,335.5 Z"/></g>
<g><path style="opacity:1" fill="#0a0a0a" d="M 424.5,347.5 C 425.552,347.351 426.552,347.517 427.5,348C 428.833,350 430.167,352 431.5,354C 429.667,355.833 427.833,357.667 426,359.5C 425.333,361.833 425.333,364.167 426,366.5C 429.5,372.167 433,377.833 436.5,383.5C 434.241,385.545 431.741,387.211 429,388.5C 421.274,379.584 414.441,369.918 408.5,359.5C 410.759,357.455 413.259,355.789 416,354.5C 417.221,355.272 418.221,356.272 419,357.5C 419.543,353.41 421.377,350.076 424.5,347.5 Z"/></g>
<g><path style="opacity:1" fill="#0d0d0d" d="M 464.5,354.5 C 469.628,353.802 472.628,355.969 473.5,361C 471.435,367.118 467.601,368.618 462,365.5C 459.428,360.889 460.261,357.222 464.5,354.5 Z"/></g>
<g><path style="opacity:1" fill="#0a0a0a" d="M 395.5,371.5 C 403.372,370.708 409.706,373.374 414.5,379.5C 408.473,386.194 402.14,392.527 395.5,398.5C 401.229,401.256 406.062,399.923 410,394.5C 410.813,392.564 411.313,390.564 411.5,388.5C 414.167,388.5 416.833,388.5 419.5,388.5C 418.108,401.556 410.775,408.556 397.5,409.5C 383.455,406.262 378.288,397.596 382,383.5C 385.225,377.986 389.725,373.986 395.5,371.5 Z"/></g>
<g><path style="opacity:1" fill="#090909" d="M 686.5,377.5 C 695.594,380.088 702.094,385.754 706,394.5C 706.81,399.902 705.31,404.569 701.5,408.5C 696.681,412.818 692.015,417.318 687.5,422C 683.997,421.707 681.331,419.874 679.5,416.5C 679.977,415.522 680.643,414.689 681.5,414C 670.289,411.381 665.789,404.547 668,393.5C 673.832,387.24 679.999,387.073 686.5,393C 689.118,395.739 691.618,398.573 694,401.5C 697.551,396.907 697.051,392.74 692.5,389C 690.182,387.007 687.516,385.841 684.5,385.5C 684.963,382.779 685.629,380.112 686.5,377.5 Z"/></g>
<g><path style="opacity:1" fill="#f6f6f6" d="M 394.5,380.5 C 397.649,380.211 400.649,380.711 403.5,382C 399.333,386.167 395.167,390.333 391,394.5C 389.543,391.634 389.21,388.634 390,385.5C 391.707,383.963 393.207,382.296 394.5,380.5 Z"/></g>
<g><path style="opacity:1" fill="#f2f2f2" d="M 677.5,397.5 C 682.748,398.047 686.748,400.714 689.5,405.5C 685.078,409.59 680.911,409.257 677,404.5C 676.297,402.071 676.463,399.738 677.5,397.5 Z"/></g>
<g><path style="opacity:1" fill="#080808" d="M 368.5,402.5 C 378.819,401.991 386.319,406.324 391,415.5C 392.641,423.575 390.474,430.409 384.5,436C 382.913,436.862 381.246,437.529 379.5,438C 383.833,441.167 388.167,444.333 392.5,447.5C 390.853,450.473 388.853,453.14 386.5,455.5C 373.53,447.029 360.697,438.362 348,429.5C 347.891,425.755 349.391,422.755 352.5,420.5C 353.478,420.977 354.311,421.643 355,422.5C 354.966,412.712 359.466,406.045 368.5,402.5 Z"/></g>
<g><path style="opacity:1" fill="#090909" d="M 717.5,408.5 C 718.496,408.414 719.329,408.748 720,409.5C 721.555,411.443 722.722,413.61 723.5,416C 723.18,417.653 722.18,418.653 720.5,419C 725.211,420.018 728.878,422.518 731.5,426.5C 728.914,428.043 726.414,429.709 724,431.5C 722.167,429.667 720.333,427.833 718.5,426C 716.167,425.333 713.833,425.333 711.5,426C 705.915,429.375 700.415,432.875 695,436.5C 692.342,433.894 690.676,430.894 690,427.5C 699.494,421.514 708.661,415.181 717.5,408.5 Z"/></g>
<g><path style="opacity:1" fill="#f6f6f6" d="M 367.5,413.5 C 376.851,412.367 381.684,416.367 382,425.5C 376.905,433.984 370.905,434.651 364,427.5C 361.267,421.722 362.434,417.056 367.5,413.5 Z"/></g>
<g><path style="opacity:1" fill="#090909" d="M 721.5,437.5 C 734.711,437.441 742.378,443.941 744.5,457C 743.729,465.764 739.229,471.598 731,474.5C 727.012,466.566 723.012,458.566 719,450.5C 714.382,455.862 714.548,461.195 719.5,466.5C 720.833,467.5 722.167,468.5 723.5,469.5C 722.42,471.996 721.086,474.33 719.5,476.5C 711.11,472.058 707.11,465.058 707.5,455.5C 708.05,446.285 712.716,440.285 721.5,437.5 Z"/></g>
<g><path style="opacity:1" fill="#080808" d="M 346.5,442.5 C 362.719,441.883 370.219,449.55 369,465.5C 364.439,480.356 354.939,484.856 340.5,479C 333.461,473.556 330.961,466.39 333,457.5C 335.263,450.407 339.763,445.407 346.5,442.5 Z"/></g>
<g><path style="opacity:1" fill="#f0f0f0" d="M 725.5,447.5 C 732.94,447.439 736.44,451.106 736,458.5C 735.313,460.555 734.146,462.221 732.5,463.5C 729.388,458.496 727.055,453.162 725.5,447.5 Z"/></g>
<g><path style="opacity:1" fill="#f7f7f7" d="M 347.5,452.5 C 360.114,453.237 363.447,459.07 357.5,470C 346.012,473.505 340.845,469.338 342,457.5C 343.73,455.598 345.563,453.931 347.5,452.5 Z"/></g>
<g><path style="opacity:1" fill="#080808" d="M 311.5,479.5 C 327.773,483.367 344.106,487.034 360.5,490.5C 359.626,493.789 358.959,497.123 358.5,500.5C 342.692,497.733 327.025,494.233 311.5,490C 310.966,486.602 310.966,483.102 311.5,479.5 Z"/></g>
<g><path style="opacity:1" fill="#080808" d="M 767.5,530.5 C 766.167,530.5 764.833,530.5 763.5,530.5C 763.737,529.209 763.404,528.209 762.5,527.5C 761.76,520.842 761.094,514.175 760.5,507.5C 757.167,507.5 753.833,507.5 750.5,507.5C 751.093,513.5 751.759,519.5 752.5,525.5C 752.818,529.172 751.151,530.838 747.5,530.5C 746.006,530.291 744.839,529.624 744,528.5C 743.525,522.158 743.025,515.824 742.5,509.5C 738.833,509.5 735.167,509.5 731.5,509.5C 732.093,518.173 732.76,526.839 733.5,535.5C 730.881,535.232 728.381,535.565 726,536.5C 724.244,524.526 722.744,512.526 721.5,500.5C 737.158,498.76 752.825,497.094 768.5,495.5C 769.133,507.199 770.133,518.865 771.5,530.5C 770.167,530.5 768.833,530.5 767.5,530.5 Z"/></g>
<g><path style="opacity:1" fill="#080808" d="M 329.5,503.5 C 333.167,503.5 336.833,503.5 340.5,503.5C 340.037,512.536 340.037,521.536 340.5,530.5C 346.463,527.233 348.63,522.233 347,515.5C 346.365,514.034 345.531,512.7 344.5,511.5C 346.524,509.642 348.691,507.975 351,506.5C 357.537,517.218 356.704,527.385 348.5,537C 338.699,542.468 329.865,541.301 322,533.5C 315.458,521.033 317.958,511.033 329.5,503.5 Z"/></g>
<g><path style="opacity:1" fill="#f3f3f3" d="M 331.5,512.5 C 332.5,512.5 333.5,512.5 334.5,512.5C 333.78,518.138 333.447,523.804 333.5,529.5C 326.978,528.094 324.811,524.094 327,517.5C 328.366,515.638 329.866,513.972 331.5,512.5 Z"/></g>
<g><path style="opacity:1" fill="#6c6c6c" d="M 762.5,527.5 C 763.404,528.209 763.737,529.209 763.5,530.5C 764.833,530.5 766.167,530.5 767.5,530.5C 766.081,531.451 764.415,531.784 762.5,531.5C 762.5,530.167 762.5,528.833 762.5,527.5 Z"/></g>
<g><path style="opacity:1" fill="#0b0b0b" d="M 724.5,539.5 C 736.482,540.719 748.482,541.719 760.5,542.5C 760.5,545.833 760.5,549.167 760.5,552.5C 759.022,552.238 757.689,552.571 756.5,553.5C 760.928,561.144 760.262,568.31 754.5,575C 750.821,577.282 746.821,578.449 742.5,578.5C 735.569,577.112 728.569,576.446 721.5,576.5C 721.249,573.091 721.583,569.758 722.5,566.5C 723.333,566.167 724.167,565.833 725,565.5C 732.098,567.133 739.265,567.633 746.5,567C 749.366,565.607 750.699,563.274 750.5,560C 750.68,555.69 748.68,553.024 744.5,552C 737.782,551.491 731.115,550.658 724.5,549.5C 724.5,546.167 724.5,542.833 724.5,539.5 Z"/></g>
<g><path style="opacity:1" fill="#090909" d="M 317.5,543.5 C 329.758,547.316 342.092,550.983 354.5,554.5C 355.887,558.171 356.22,561.838 355.5,565.5C 346.5,570.667 337.5,575.833 328.5,581C 326.598,582.301 324.598,582.968 322.5,583C 321.383,579.927 321.216,576.76 322,573.5C 329.249,569.46 336.415,565.293 343.5,561C 335.559,558.464 327.559,556.131 319.5,554C 318.604,550.572 317.938,547.072 317.5,543.5 Z"/></g>
<g><path style="opacity:1" fill="#070707" d="M 710.5,577.5 C 713.624,577.943 715.957,579.61 717.5,582.5C 712.865,586.639 710.199,591.806 709.5,598C 709.738,602.909 712.238,606.076 717,607.5C 714.438,591.399 721.272,583.233 737.5,583C 750.738,588.217 754.238,597.383 748,610.5C 746.127,612.709 743.96,614.542 741.5,616C 742.833,616.667 744.167,617.333 745.5,618C 744.557,621.188 743.057,624.021 741,626.5C 729.679,622.726 718.512,618.56 707.5,614C 700.977,608.996 698.81,602.496 701,594.5C 703.151,588.192 706.318,582.525 710.5,577.5 Z"/></g>
<g><path style="opacity:1" fill="#0a0a0a" d="M 353.5,581.5 C 363.304,587.462 366.804,596.129 364,607.5C 359.385,617.557 351.552,621.39 340.5,619C 328.293,611.991 325.127,602.157 331,589.5C 334.087,585.041 338.253,582.875 343.5,583C 346.355,590.564 349.022,598.231 351.5,606C 353.603,607.364 355.103,606.53 356,603.5C 357.346,596.875 355.18,591.709 349.5,588C 351.058,585.948 352.392,583.781 353.5,581.5 Z"/></g>
<g><path style="opacity:1" fill="#f4f4f4" d="M 729.5,593.5 C 739.212,592.709 743.045,597.042 741,606.5C 737.458,612.876 732.624,614.043 726.5,610C 722.039,603.475 723.039,597.975 729.5,593.5 Z"/></g>
<g><path style="opacity:1" fill="#efefef" d="M 339.5,593.5 C 340.497,593.47 341.164,593.97 341.5,595C 343.35,599.714 344.684,604.547 345.5,609.5C 338.585,609.084 335.418,605.417 336,598.5C 336.997,596.677 338.164,595.01 339.5,593.5 Z"/></g>
<g><path style="opacity:1" fill="#090909" d="M 704.5,620.5 C 715.43,625.632 726.097,631.299 736.5,637.5C 735.42,639.996 734.086,642.33 732.5,644.5C 731.635,645.583 730.635,645.749 729.5,645C 719.473,639.991 709.806,634.491 700.5,628.5C 701.86,625.78 703.193,623.114 704.5,620.5 Z"/></g>
<g><path style="opacity:1" fill="#090909" d="M 356.5,621.5 C 365.977,621.046 373.811,624.379 380,631.5C 384.5,638.667 389,645.833 393.5,653C 380.334,661.418 367,669.584 353.5,677.5C 349.135,670.966 344.969,664.3 341,657.5C 333.835,640.165 339.002,628.165 356.5,621.5 Z"/></g>
<g><path style="opacity:1" fill="#fafafa" d="M 357.5,632.5 C 362.121,631.993 366.454,632.826 370.5,635C 374.295,638.793 377.295,643.126 379.5,648C 372.04,653.903 364.04,659.07 355.5,663.5C 350.807,658.614 348.141,652.78 347.5,646C 348.38,639.628 351.713,635.128 357.5,632.5 Z"/></g>
<g><path style="opacity:1" fill="#080808" d="M 696.5,635.5 C 697.922,635.709 699.255,636.209 700.5,637C 709.047,643.435 717.381,650.102 725.5,657C 723.794,659.572 721.961,662.072 720,664.5C 719.311,663.643 718.478,662.977 717.5,662.5C 715.623,677.589 707.623,682.756 693.5,678C 687.5,673.333 681.5,668.667 675.5,664C 677.31,661.356 679.31,658.856 681.5,656.5C 687.307,660.474 692.974,664.64 698.5,669C 708.068,669.761 711.235,665.594 708,656.5C 702.592,651.88 697.092,647.38 691.5,643C 693.415,640.6 695.081,638.1 696.5,635.5 Z"/></g>
<g><path style="opacity:1" fill="#0e0e0e" d="M 741.5,640.5 C 747.82,640.32 750.32,643.32 749,649.5C 744.034,655.132 740.2,654.466 737.5,647.5C 738.071,644.687 739.404,642.354 741.5,640.5 Z"/></g>
<g><path style="opacity:1" fill="#0b0b0b" d="M 666.5,673.5 C 684.459,672.619 691.959,680.952 689,698.5C 681.929,711.016 672.096,713.85 659.5,707C 657.787,705.622 656.453,703.955 655.5,702C 662.167,696 668.833,690 675.5,684C 669.733,681.3 664.9,682.467 661,687.5C 659.872,689.345 659.372,691.345 659.5,693.5C 656.5,693.5 653.5,693.5 650.5,693.5C 650.676,688.48 652.509,684.146 656,680.5C 659.308,677.771 662.808,675.438 666.5,673.5 Z"/></g>
<g><path style="opacity:1" fill="#070707" d="M 402.5,674.5 C 414.51,672.499 422.51,677.166 426.5,688.5C 427.167,687.833 427.833,687.167 428.5,686.5C 431.447,687.781 433.781,689.781 435.5,692.5C 425.573,705.349 415.407,718.016 405,730.5C 402.022,728.689 399.522,726.356 397.5,723.5C 400.643,719.189 403.977,715.022 407.5,711C 391.859,707.664 387.025,698.497 393,683.5C 395.406,679.592 398.572,676.592 402.5,674.5 Z"/></g>
<g><path style="opacity:1" fill="#f8f8f8" d="M 406.5,684.5 C 417.215,683.616 421.049,688.283 418,698.5C 412.208,705.1 406.541,705.1 401,698.5C 399.349,692.36 401.182,687.694 406.5,684.5 Z"/></g>
<g><path style="opacity:1" fill="#eeeeee" d="M 678.5,689.5 C 680.89,689.685 681.89,691.018 681.5,693.5C 680.782,699.05 677.616,702.05 672,702.5C 669.851,702.342 668.017,701.508 666.5,700C 670.693,696.635 674.693,693.135 678.5,689.5 Z"/></g>
<g><path style="opacity:1" fill="#0b0b0b" d="M 633.5,696.5 C 651.48,696.308 658.646,704.975 655,722.5C 651,730.01 644.667,734.01 636,734.5C 628.36,733.694 623.194,729.694 620.5,722.5C 627.964,717.597 635.631,712.93 643.5,708.5C 639.07,704.713 634.404,704.546 629.5,708C 627.54,710.106 625.706,712.273 624,714.5C 621.367,714.077 619.201,712.91 617.5,711C 618.755,708.078 620.422,705.411 622.5,703C 626.096,700.539 629.763,698.373 633.5,696.5 Z"/></g>
<g><path style="opacity:1" fill="#090909" d="M 438.5,698.5 C 450.391,697.527 459.224,702.194 465,712.5C 466.448,729.718 458.615,737.552 441.5,736C 427.725,729.684 424.558,720.184 432,707.5C 439.836,711.337 447.67,715.004 455.5,718.5C 455.953,714.574 454.62,711.408 451.5,709C 447.747,707.011 443.747,706.178 439.5,706.5C 439.167,703.833 438.833,701.167 438.5,698.5 Z"/></g>
<g><path style="opacity:1" fill="#090909" d="M 606.5,709.5 C 609.05,709.561 610.55,710.894 611,713.5C 614.482,723.444 617.649,733.444 620.5,743.5C 617.933,743.855 615.433,744.521 613,745.5C 611.347,745.18 610.347,744.18 610,742.5C 607.758,746.919 604.258,749.586 599.5,750.5C 599.145,747.933 598.479,745.433 597.5,743C 599.29,741.266 601.29,739.766 603.5,738.5C 604.969,736.808 605.635,734.808 605.5,732.5C 604.203,725.776 602.203,719.276 599.5,713C 601.858,711.724 604.192,710.558 606.5,709.5 Z"/></g>
<g><path style="opacity:1" fill="#f2f2f2" d="M 644.5,714.5 C 645.5,714.5 646.5,714.5 647.5,714.5C 647.203,722.962 642.87,726.462 634.5,725C 633.09,724.632 632.09,723.799 631.5,722.5C 636.065,720.059 640.398,717.392 644.5,714.5 Z"/></g>
<g><path style="opacity:1" fill="#080808" d="M 483.5,715.5 C 487.443,716.486 491.443,717.152 495.5,717.5C 495.926,728.575 497.093,739.575 499,750.5C 504.414,740.669 510.081,731.002 516,721.5C 519.364,722.739 522.864,723.406 526.5,723.5C 529.404,739.729 531.237,756.062 532,772.5C 528.6,771.46 525.1,770.794 521.5,770.5C 521.152,759.052 519.819,747.719 517.5,736.5C 511.917,745.997 506.584,755.664 501.5,765.5C 498.155,766.24 494.822,765.907 491.5,764.5C 489.833,753.167 488.167,741.833 486.5,730.5C 480.913,740.006 475.58,749.673 470.5,759.5C 466.65,760.498 462.983,759.998 459.5,758C 467.728,743.944 475.728,729.778 483.5,715.5 Z"/></g>
<g><path style="opacity:1" fill="#eeeeee" d="M 436.5,717.5 C 442.392,719.113 447.726,721.78 452.5,725.5C 447.419,729.658 442.586,729.325 438,724.5C 436.798,722.323 436.298,719.989 436.5,717.5 Z"/></g>
<g><path style="opacity:1" fill="#101010" d="M 561.5,720.5 C 568.799,719.371 571.965,722.371 571,729.5C 566.902,734.804 562.902,734.804 559,729.5C 557.927,725.9 558.76,722.9 561.5,720.5 Z"/></g>
</svg>
